{"accessors" : [{"bufferView" : 0, "byteOffset" : 0, "componentType" : 5123, "count" : 18000, "type" : "SCALAR", "max" : [3005], "min" : [0]}, {"bufferView" : 1, "byteOffset" : 0, "componentType" : 5126, "count" : 3006, "type" : "VEC3", "max" : [2.6169917583465576, 1.7594350576400757, 1.758243441581726], "min" : [-2.614985466003418, -1.759156346321106, -1.758243441581726], "name" : "POSITION"}, {"bufferView" : 1, "byteOffset" : 12, "componentType" : 5126, "count" : 3006, "type" : "VEC3", "max" : [0.9999986290931702, 0.9996833801269531, 0.9990063309669495], "min" : [-0.9985857605934143, -0.9995250105857849, -0.9990063309669495], "name" : "NORMAL"}, {"bufferView" : 1, "byteOffset" : 24, "componentType" : 5126, "count" : 3006, "type" : "VEC3", "max" : [1, 0.5647059082984924, 0.5647059082984924], "min" : [0.5647059082984924, 0.05098039284348488, 0.05098039284348488], "name" : "COLOR_0"}], "asset" : {"generator" : "Aspose.3D 24.6.0", "version" : "2.0"}, "buffers" : [{"uri" : "data:application/octet-stream;base64,", "byteLength" : 144224}], "bufferViews" : [{"buffer" : 0, "byteOffset" : 0, "byteLength" : 36000, "target" : 34963}, {"buffer" : 0, "byteOffset" : 36004, "byteLength" : 108216, "byteStride" : 36, "target" : 34962}], "meshes" : [{"primitives" : [{"attributes" : {"POSITION" : 1, "NORMAL" : 2, "COLOR_0" : 3}, "indices" : 0, "mode" : 4}]}], "nodes" : [{"mesh" : 0, "name" : "atoms"}, {"children" : [0], "name" : "pubchem:280"}, {"children" : [1], "matrix" : [1, 0, 0, 0, 0, 1, 0, 0, 0, 0, 1, 0, 0, 0.17000001668930054, 0.17000001668930054, 1], "name" : "centering"}], "scene" : 0, "scenes" : [{"nodes" : [2]}]}